<mxfile host="app.diagrams.net" modified="2022-10-10T07:17:17.690Z" agent="5.0 (X11; Linux x86_64) AppleWebKit/537.36 (KHTML, like Gecko) Chrome/106.0.0.0 Safari/537.36" etag="lAyTrHNpzEwphmIHeMDi" version="20.4.0" type="github" pages="4">
  <diagram id="VffrLYMoolDyAyEGuRuo" name="TCP">
    <mxGraphModel dx="1366" dy="773" grid="1" gridSize="10" guides="1" tooltips="1" connect="1" arrows="1" fold="1" page="1" pageScale="1" pageWidth="1400" pageHeight="1100" math="0" shadow="0">
      <root>
        <mxCell id="0" />
        <mxCell id="1" parent="0" />
        <mxCell id="ZfTHQW-V90iGO0S8fVuB-3" value="&lt;h1&gt;TCP ( Transmission Control Protocol )&lt;/h1&gt;" style="text;html=1;spacing=5;spacingTop=-20;whiteSpace=wrap;overflow=hidden;rounded=0;fillColor=#dae8fc;strokeColor=#6c8ebf;align=center;" parent="1" vertex="1">
          <mxGeometry x="200" y="80" width="530" height="40" as="geometry" />
        </mxCell>
        <mxCell id="ZfTHQW-V90iGO0S8fVuB-4" value="&lt;h1 style=&quot;text-align: left; font-size: 12px;&quot;&gt;&lt;span style=&quot;background-color: initial; font-size: 12px; font-weight: normal;&quot;&gt;Allow us to send information from one server to another server using IP address and Ports.&amp;nbsp;&lt;/span&gt;HTTP used TCP, Databases used TCP.&lt;/h1&gt;" style="rounded=0;whiteSpace=wrap;html=1;fontSize=16;fillColor=#dae8fc;strokeColor=#6c8ebf;" parent="1" vertex="1">
          <mxGeometry x="200" y="130" width="740" height="60" as="geometry" />
        </mxCell>
        <mxCell id="ZfTHQW-V90iGO0S8fVuB-5" value="PROS&lt;br style=&quot;font-size: 21px;&quot;&gt;&lt;ul style=&quot;font-size: 21px;&quot;&gt;&lt;li style=&quot;font-size: 21px;&quot;&gt;Acknowledgement&lt;/li&gt;&lt;li style=&quot;font-size: 21px;&quot;&gt;Gauranteed Delivery&lt;/li&gt;&lt;li style=&quot;font-size: 21px;&quot;&gt;Connection Based&lt;/li&gt;&lt;li style=&quot;font-size: 21px;&quot;&gt;Congestion Control&lt;/li&gt;&lt;li style=&quot;font-size: 21px;&quot;&gt;Ordered Packets&lt;/li&gt;&lt;/ul&gt;" style="whiteSpace=wrap;html=1;aspect=fixed;fontSize=21;fillColor=#f5f5f5;fontColor=#333333;strokeColor=#666666;align=left;spacingTop=0;spacingLeft=35;" parent="1" vertex="1">
          <mxGeometry x="200" y="220" width="320" height="320" as="geometry" />
        </mxCell>
        <mxCell id="ZfTHQW-V90iGO0S8fVuB-6" value="&lt;span style=&quot;font-family: Helvetica; font-size: 21px; font-style: normal; font-variant-ligatures: normal; font-variant-caps: normal; font-weight: 400; letter-spacing: normal; orphans: 2; text-indent: 0px; text-transform: none; widows: 2; word-spacing: 0px; -webkit-text-stroke-width: 0px; text-decoration-thickness: initial; text-decoration-style: initial; text-decoration-color: initial; float: none; display: inline !important;&quot;&gt;CONS&lt;/span&gt;&lt;br style=&quot;font-family: Helvetica; font-size: 21px; font-style: normal; font-variant-ligatures: normal; font-variant-caps: normal; font-weight: 400; letter-spacing: normal; orphans: 2; text-indent: 0px; text-transform: none; widows: 2; word-spacing: 0px; -webkit-text-stroke-width: 0px; text-decoration-thickness: initial; text-decoration-style: initial; text-decoration-color: initial;&quot;&gt;&lt;ul style=&quot;font-family: Helvetica; font-size: 21px; font-style: normal; font-variant-ligatures: normal; font-variant-caps: normal; font-weight: 400; letter-spacing: normal; orphans: 2; text-indent: 0px; text-transform: none; widows: 2; word-spacing: 0px; -webkit-text-stroke-width: 0px; text-decoration-thickness: initial; text-decoration-style: initial; text-decoration-color: initial;&quot;&gt;&lt;li style=&quot;font-size: 21px;&quot;&gt;Larger Packets&lt;/li&gt;&lt;li style=&quot;font-size: 21px;&quot;&gt;More Bandwidth&lt;/li&gt;&lt;li style=&quot;font-size: 21px;&quot;&gt;Slower than UDP&lt;/li&gt;&lt;li style=&quot;font-size: 21px;&quot;&gt;Stateful&lt;/li&gt;&lt;li style=&quot;font-size: 21px;&quot;&gt;Server Memory (DoS)&lt;/li&gt;&lt;/ul&gt;" style="whiteSpace=wrap;html=1;aspect=fixed;fontSize=21;spacingLeft=41;fillColor=#f5f5f5;fontColor=#333333;strokeColor=#666666;labelBackgroundColor=none;align=left;spacingTop=2;spacing=2;" parent="1" vertex="1">
          <mxGeometry x="560" y="220" width="320" height="320" as="geometry" />
        </mxCell>
        <mxCell id="ZfTHQW-V90iGO0S8fVuB-7" value="&lt;font style=&quot;font-size: 14px;&quot;&gt;Stateless: When server is restart or shut down and start then if client remains the connection with server, then it is stateless otherwise stateful&lt;/font&gt;" style="text;html=1;strokeColor=#6c8ebf;fillColor=#dae8fc;align=center;verticalAlign=middle;whiteSpace=wrap;rounded=0;labelBackgroundColor=none;fontSize=21;" parent="1" vertex="1">
          <mxGeometry x="200" y="680" width="980" height="40" as="geometry" />
        </mxCell>
      </root>
    </mxGraphModel>
  </diagram>
  <diagram id="wRqzZ5i3rDz9NH5KCXP4" name="TCP example">
    <mxGraphModel dx="1366" dy="773" grid="1" gridSize="10" guides="1" tooltips="1" connect="1" arrows="1" fold="1" page="1" pageScale="1" pageWidth="1400" pageHeight="1100" math="0" shadow="0">
      <root>
        <mxCell id="0" />
        <mxCell id="1" parent="0" />
        <mxCell id="p9D0sGISVuBfkwP_cTYu-2" value="TCP Server example using NodeJS" style="rounded=0;whiteSpace=wrap;html=1;labelBackgroundColor=none;fontSize=14;fillColor=#dae8fc;strokeColor=#6c8ebf;" parent="1" vertex="1">
          <mxGeometry x="190" y="70" width="440" height="60" as="geometry" />
        </mxCell>
      </root>
    </mxGraphModel>
  </diagram>
  <diagram name="UDP" id="Ge-LOHc76X1bF4P0iJXH">
    <mxGraphModel dx="1366" dy="773" grid="1" gridSize="10" guides="1" tooltips="1" connect="1" arrows="1" fold="1" page="1" pageScale="1" pageWidth="1400" pageHeight="1100" math="0" shadow="0">
      <root>
        <mxCell id="olD9eUc62AUuz5hJfVso-0" />
        <mxCell id="olD9eUc62AUuz5hJfVso-1" parent="olD9eUc62AUuz5hJfVso-0" />
        <mxCell id="olD9eUc62AUuz5hJfVso-2" value="&lt;h1&gt;UDP ( User Datagram Protocol )&lt;/h1&gt;" style="text;html=1;spacing=5;spacingTop=-20;whiteSpace=wrap;overflow=hidden;rounded=0;fillColor=#dae8fc;strokeColor=#6c8ebf;align=center;" vertex="1" parent="olD9eUc62AUuz5hJfVso-1">
          <mxGeometry x="200" y="80" width="530" height="40" as="geometry" />
        </mxCell>
        <mxCell id="olD9eUc62AUuz5hJfVso-4" value="CONS&lt;br style=&quot;font-size: 21px;&quot;&gt;&lt;ul style=&quot;font-size: 21px;&quot;&gt;&lt;li style=&quot;font-size: 21px;&quot;&gt;No Acknowledgement&lt;/li&gt;&lt;li style=&quot;font-size: 21px;&quot;&gt;No Guaranteed Delivery&lt;/li&gt;&lt;li style=&quot;font-size: 21px;&quot;&gt;Connectionless&lt;/li&gt;&lt;li style=&quot;font-size: 21px;&quot;&gt;No Congestion Control&lt;/li&gt;&lt;li style=&quot;font-size: 21px;&quot;&gt;No Ordered Packets&lt;/li&gt;&lt;li style=&quot;font-size: 21px;&quot;&gt;No Security&lt;/li&gt;&lt;/ul&gt;" style="whiteSpace=wrap;html=1;aspect=fixed;fontSize=21;fillColor=#f5f5f5;fontColor=#333333;strokeColor=#666666;align=left;spacingTop=0;spacingLeft=35;" vertex="1" parent="olD9eUc62AUuz5hJfVso-1">
          <mxGeometry x="560" y="240" width="320" height="320" as="geometry" />
        </mxCell>
        <mxCell id="olD9eUc62AUuz5hJfVso-5" value="&lt;span style=&quot;font-family: Helvetica; font-size: 21px; font-style: normal; font-variant-ligatures: normal; font-variant-caps: normal; font-weight: 400; letter-spacing: normal; orphans: 2; text-indent: 0px; text-transform: none; widows: 2; word-spacing: 0px; -webkit-text-stroke-width: 0px; text-decoration-thickness: initial; text-decoration-style: initial; text-decoration-color: initial; float: none; display: inline !important;&quot;&gt;PROS&lt;/span&gt;&lt;br style=&quot;font-family: Helvetica; font-size: 21px; font-style: normal; font-variant-ligatures: normal; font-variant-caps: normal; font-weight: 400; letter-spacing: normal; orphans: 2; text-indent: 0px; text-transform: none; widows: 2; word-spacing: 0px; -webkit-text-stroke-width: 0px; text-decoration-thickness: initial; text-decoration-style: initial; text-decoration-color: initial;&quot;&gt;&lt;ul style=&quot;font-family: Helvetica; font-size: 21px; font-style: normal; font-variant-ligatures: normal; font-variant-caps: normal; font-weight: 400; letter-spacing: normal; orphans: 2; text-indent: 0px; text-transform: none; widows: 2; word-spacing: 0px; -webkit-text-stroke-width: 0px; text-decoration-thickness: initial; text-decoration-style: initial; text-decoration-color: initial;&quot;&gt;&lt;li style=&quot;font-size: 21px;&quot;&gt;Smaller Packets&lt;/li&gt;&lt;li style=&quot;font-size: 21px;&quot;&gt;Less Bandwidth&lt;/li&gt;&lt;li style=&quot;font-size: 21px;&quot;&gt;Faster than TCP&lt;/li&gt;&lt;li style=&quot;font-size: 21px;&quot;&gt;Stateless&lt;/li&gt;&lt;/ul&gt;" style="whiteSpace=wrap;html=1;aspect=fixed;fontSize=21;spacingLeft=41;fillColor=#f5f5f5;fontColor=#333333;strokeColor=#666666;labelBackgroundColor=none;align=left;spacingTop=2;spacing=2;" vertex="1" parent="olD9eUc62AUuz5hJfVso-1">
          <mxGeometry x="200" y="240" width="320" height="320" as="geometry" />
        </mxCell>
        <mxCell id="olD9eUc62AUuz5hJfVso-6" value="&lt;font style=&quot;font-size: 14px;&quot;&gt;Stateless: When server is restart or shut down and start then if client remains the connection with server, then it is stateless otherwise stateful&lt;/font&gt;" style="text;html=1;strokeColor=#6c8ebf;fillColor=#dae8fc;align=center;verticalAlign=middle;whiteSpace=wrap;rounded=0;labelBackgroundColor=none;fontSize=21;" vertex="1" parent="olD9eUc62AUuz5hJfVso-1">
          <mxGeometry x="200" y="680" width="980" height="40" as="geometry" />
        </mxCell>
      </root>
    </mxGraphModel>
  </diagram>
  <diagram id="JgxKGiEHpjAjZ_Do8xt8" name="UDP Example">
    <mxGraphModel dx="1366" dy="773" grid="1" gridSize="10" guides="1" tooltips="1" connect="1" arrows="1" fold="1" page="1" pageScale="1" pageWidth="1400" pageHeight="1100" math="0" shadow="0">
      <root>
        <mxCell id="0" />
        <mxCell id="1" parent="0" />
      </root>
    </mxGraphModel>
  </diagram>
</mxfile>
